<?xml version="1.0" encoding="UTF-8"?>
<svg xmlns="http://www.w3.org/2000/svg" version="1.1" viewBox="0 0 1083 1083">
  <!-- Generator: Adobe Illustrator 29.6.1, SVG Export Plug-In . SVG Version: 2.1.1 Build 9)  -->
  <defs>
    <style>
      .st0 {
        fill: #fff;
      }

      .st1 {
        fill: #8089ad;
      }

      .st2 {
        fill: #3c3497;
      }
    </style>
  </defs>
  <g id="Shadows">
    <path class="st2" d="M123.73,852.35c7.2,17.99,15.59,31.11,21.96,39.78,5.6,7.62,10.92,13.51,15.4,18.48,9.96,11.05,19,19.58,25.69,25.53,2.96,2.46,7.16,5.89,12.24,9.92,10.74,8.5,29.06,22.91,53.86,38.49,11.97,7.52,27.46,16.57,46.21,25.88,16.02,7.39,32.04,14.79,48.06,22.18,27.06,11.15,51.65,18.48,72.08,23.41,35.63,8.61,63.69,11.18,73.75,11.98,10.24.81,28.28,1.9,49.9,1.23,12.69-.39,63.33-2.52,127.1-22.45,48.62-15.2,82.88-33.87,104.12-45.59,16.52-9.12,40.16-22.29,68.2-44.09,26.14-20.32,87.39-68.53,77.63-103.51-.26-.94-.61-1.95-1.17-3.02-51.59-98.22-764.03-2.52-764.03-2.52-5.41.74-16.46,2.26-31.02,4.31Z"/>
    <path class="st2" d="M125.62,549.99c-.65.09-1.08.68-1.28.98-5.8,8.42-10.01,23.98-10.01,23.98-.37,1.38-.76,2.82-1.16,4.79-.88,4.32-1.04,7.67-1.23,9.55-2.21,22.05-.45,43.84,1.23,53.91h0c1.47,12.13,5.38,38.53,16.63,70.85,6.36,18.27,12.52,38.4,27.11,59.45,9.02,13.01,16.85,24,26.78,23.35,10.39-.69,19.99-13.92,24.36-32.59-11.4-28.44-22.8-56.89-34.19-85.33-14.58-41.18-29.16-82.35-43.74-123.53-.53-1.23-2.54-5.66-4.49-5.4Z"/>
    <path class="st2" d="M932.03,549.86c-.01-.23-2.79-1.08-20.28-.01-7.93.48-16.36,1.01-27.98,2.62-7.09.98-12.25,1.93-20.64,3.47-1.09.2-11.46,2.11-20.18,3.98-18.8,4.04-34.26,8.89-49.9,13.76-11.41,3.56-22.7,7.09-37.58,12.73-13.77,5.22-25.27,9.58-39.64,17.05-9.67,5.03-21.46,11.89-34.3,21.15,17.39,7.74,34.78,15.47,52.16,23.21,57.02-24.1,114.05-48.19,171.07-72.29,7.53-6.5,15.06-13.01,22.59-19.51-.25-1.3-.33-2.99.62-4.25,1.36-1.8,4.07-1.67,4.06-1.9Z"/>
    <path class="st2" d="M683.99,593.59c-7.84-3.56-18.52-8.16-31.42-12.94-16.49-6.1-33.06-12.24-55.45-16.63-8.53-1.68-34.77-6.42-69.31-4.93-14.68.63-27,2.22-36.04,3.7.56-4.23,1.81-10.33,4.93-17.07,3.91-8.46,9.16-14.51,12.01-17.12,11.37-10.44,33.36-11.24,55.14-2.46,27.52,7.91,55.04,15.81,82.56,23.72,10.17,6.98,20.33,13.97,30.5,20.95,2.36,7.6,4.72,15.2,7.09,22.8Z"/>
    <path class="st2" d="M645.38,480.64c4.61.61,11.17,1.03,18.89,0,5.35-.72,19.11-2.73,32.65-13.14,2.09-1.61,11.88-9.34,18.89-23.21,3.03-5.99,7.16-14.15,6.78-25.26-.26-7.6-2.51-13.19-4.11-17.05-4.99-12.07-12.77-19.37-18.28-24.44-9.08-8.35-17.53-12.72-23.62-15.81-5.73-2.91-18.14-8.65-35.12-11.71-16.32-2.93-28.8-1.93-40.05-1.03-17.92,1.44-31.06,4.98-39.84,7.39-13.82,3.8-26.81,7.47-38.2,15.4-7.44,5.18-14.79,12.12-14.79,12.12-3.4,3.2-6.09,6.07-8.01,8.21-3.77-8.9-7.53-17.8-11.3-26.7,19.72-10.95,39.43-21.91,59.15-32.86,14.99-2.46,29.98-4.93,44.98-7.39,27.45.96,54.9,1.92,82.35,2.88,17.87,2.74,35.73,5.48,53.6,8.21,15.27,17.73,30.53,35.46,45.8,53.19,2.19,19.24,4.38,38.47,6.57,57.71-20.88,13.55-41.76,27.11-62.64,40.66-21.43,1.23-42.85,2.46-64.28,3.7-8.08-2.33-16.16-4.66-24.23-6.98,4.93-1.3,9.86-2.6,14.79-3.9Z"/>
    <path class="st2" d="M481.49,366.25c12.62,9.68,21.29,19.14,26.9,26.08,2.9,3.59,5.71,7.09,8.83,12.32,7.15,11.98,10.16,23.34,11.5,31.01.83,4.71,2.03,11.84,1.23,20.95-1.65,18.93-10.67,32.18-14.58,37.79-9.13,13.07-19.26,19.9-29.37,26.7-6.84,4.6-22.79,14.53-45.8,20.95-24.42,6.81-44.09,6.11-57.09,5.54-26.82-1.17-46.51-7.1-61.41-11.71-9.38-2.9-37.3-12.03-70.03-32.04-17.67-10.8-40.19-24.8-63.05-50.52-10.85-12.2-25.26-30.97-37.17-56.27-4.89-10.37-12.24-26.27-16.43-48.67-.83-4.42-3.84-21.47-2.88-44.15.62-14.4,2.61-24.8,5.13-37.79,2.75-14.12,7.16-32.98,14.54-54.98,16.51,35.92,33.02,71.84,49.54,107.76,17.8,10.54,35.6,21.08,53.4,31.63,44.91,28.82,89.81,57.64,134.72,86.46,26.08-15.4,52.16-30.81,78.25-46.21,4.59-8.28,9.17-16.57,13.76-24.85Z"/>
  </g>
  <g id="Body">
    <path class="st1" d="M123.73,852.36c3.58,5.66,8.92,13.67,16.02,22.8,11.71,15.06,28.69,33.79,58.53,56.68,49.75,38.18,101.09,61.76,110.28,65.92,82.64,37.44,152.11,46.15,168.38,48.01,47.89,5.48,87.03,3.38,110.93,1.09,18.91-1.81,87.97-9.46,170.25-45.82,0,0,69.37-30.65,119.1-73.52,28.48-24.55,42.27-46.17,48.06-56.07,4.49-7.67,7.72-14.35,9.86-19.1-5.56-11.55-13.12-24.91-23.41-38.81-7.29-9.85-14.67-18.23-21.56-25.26,5.16-7.62,11.88-18.43,18.48-32.04,5.09-10.49,11.63-25.77,19.1-53.6,11-40.98,17.68-65.89,15.4-99.19-1.48-21.62-6.26-39.8-11.09-53.6-27.67,4.58-50.97,10.59-69,16.02-24.37,7.34-41.72,14.75-76.4,29.57-21.76,9.3-36.11,18.24-51.14,30.19-6.07,4.83-10.87,9.18-14.17,12.32-24.43-13.64-45.95-23.12-62.23-29.57-21.71-8.6-42.32-16.65-71.16-21.87-8.12-1.47-28.64-4.85-55.45-4.93-27.02-.08-48.58,3.21-61.23,5.62-26.34,5-45.41,12.08-66.61,19.95-16.21,6.02-29.46,11.76-38.81,16.02-14.51-8.9-33.77-19.7-57.3-30.19-16.39-7.31-47.99-20.46-89.95-30.19-23.54-5.46-55.13-11.06-93.03-12.94-2.44,12.9-4.76,31.17-3.7,52.99,2.31,47.47,19.16,81.64,27.11,97.35,14.98,29.62,33.37,51.9,49.29,67.77-12.01,7.32-21.16,14.86-27.72,20.95-13.28,12.32-21.47,23.85-28.96,34.5-7.73,11.01-13.59,21-17.87,28.96Z"/>
    <path class="st1" d="M502.85,532.39c1.34-2.27,5.74-9.32,18.89-19.3,9.13-6.93,16.99-11.17,20.13-12.73,21.88-10.89,41.11-15.28,46.41-16.43,8.96-1.94,30.19-5.89,57.5-4.11,17.94,1.17,16.39,3.38,26.7,2.88,7.07-.34,36.68-2.79,56.68-27.52,5.15-6.37,13.78-19.31,15.61-37.38,3.32-32.72-18.31-55.8-22.59-60.38-19.93-21.28-46.31-24.43-66.54-27.11-15.82-2.09-28.07-1.1-41.48-.02-15.19,1.23-34.16,2.9-56.68,11.52-21.59,8.26-35.73,18.65-39.84,21.77-7.26,5.51-12.9,10.84-16.94,14.99,3.49,3.81,8.29,9.93,12.01,18.48.37.84,3.68,8.57,4.93,17.46,3.17,22.59-8.32,42.86-10.68,46.82-15.12,25.41-38.89,36.17-50.11,41.07-23.63,10.31-43.95,10.6-62.02,10.68-38.65.16-67.6-10.2-87.9-17.66-13.91-5.12-41.8-16.53-72.7-38.61-21.13-15.1-42.23-30.17-60.79-57.91-20.4-30.5-26.29-59.22-29.16-73.93-10.3-52.8,1.63-94.87,5.34-106.79,14.28-45.9,40.27-74.13,57.09-92.01,48.99-52.04,104.35-72.25,141.19-85.23,64.77-22.81,118.07-24.37,160.29-25.26,89.58-1.88,156.61,16.16,176.21,21.77,77.02,22.04,129.18,54.55,162.24,75.17,24.12,15.04,44.19,28.43,64.08,46.41,5.53,5,20.9,19.21,38.4,40.46,16.5,20.03,38.58,46.84,54.42,86.05,10.52,26.05,26.49,65.95,17.25,115.83-7.34,39.64-27.39,65.81-33.27,73.11-8.71,10.8-28.77,35.28-62.43,47.23-9.07,3.22-21.52,5.06-46.41,8.73-34.34,5.07-37.44,3.01-59.15,7.39-21.6,4.37-37.32,10.2-53.81,16.33-7.3,2.71-28.4,10.75-54.63,24.34-11,5.69-20.17,10.95-27.11,15.09-1.9-2.76-4.71-6.43-8.6-10.28-3.45-3.41-6.94-6.16-11.51-9.24-2.77-1.86-10.24-6.74-25.79-13.86-7.95-3.63-15.2-6.95-25.57-10.37-9.86-3.25-17.78-5.02-24.64-6.56-4.98-1.11-11.1-2.48-18.6-3.61-7.79-1.17-21.28-3.11-38.49-1.95-8.43.57-19.76,2.02-32.86,5.75.87-2.78,2.36-6.74,4.93-11.09Z"/>
  </g>
  <g id="Eyes">
    <ellipse class="st0" cx="348.14" cy="834.44" rx="125.63" ry="108.6" transform="translate(-554.58 783.73) rotate(-64.14)"/>
    <ellipse class="st0" cx="702.75" cy="835.3" rx="108.6" ry="125.63" transform="translate(-249.91 302.36) rotate(-20.7)"/>
  </g>
  <g id="Details">
    <ellipse class="st2" cx="702.94" cy="227.46" rx="36.85" ry="58.92" transform="translate(-33.08 163.11) rotate(-12.93)"/>
    <ellipse class="st2" cx="787.83" cy="168.48" rx="34.8" ry="54.24" transform="translate(-17.64 151.81) rotate(-10.89)"/>
    <ellipse class="st2" cx="813.66" cy="296.71" rx="35.97" ry="54.73" transform="translate(-34.89 123.37) rotate(-8.49)"/>
    <ellipse class="st2" cx="878.19" cy="222.99" rx="27.11" ry="50.14" transform="translate(-26.31 169.86) rotate(-10.89)"/>
    <path class="st2" d="M302.41,180.39c7.64-7.09,17.3-14.99,29.16-22.59,13.69-8.77,26.61-14.76,37.38-18.89,5.69,5.17,12.21,12,18.48,20.74,8.81,12.27,14.06,24.05,17.25,33.06,8.84-3.4,18.03-7.21,27.52-11.5,11.31-5.11,21.85-10.37,31.63-15.61,5.54,3.91,14.84,11.57,22.18,24.23,8.45,14.58,9.97,28.34,10.27,35.32-8.63,6.78-18.88,13.99-30.81,20.95-10.02,5.85-19.59,10.56-28.34,14.38,3.57,8.43,7.1,17.89,10.27,28.34,3.82,12.61,6.43,24.37,8.21,34.91-5.26,6.3-13.65,14.75-25.88,21.77-20.99,12.05-41.23,12.96-50.93,12.73-3.54-7.76-7.07-16.54-10.27-26.29-2.77-8.45-4.91-16.44-6.57-23.82-7.72,5.9-16.81,12.11-27.34,18.08-14.07,7.98-27.33,13.62-38.79,17.65-6.89-7.08-14.97-16.59-22.59-28.75-7.62-12.16-12.65-23.57-16.02-32.86,9.37-7.65,19.77-15.54,31.22-23.41,12.87-8.85,25.29-16.46,36.97-23-4.87-9.07-9.8-19.34-14.38-30.81-3.45-8.64-6.29-16.9-8.63-24.64Z"/>
    <path class="st2" d="M297.35,749.04c-8.41,15.27-6.29,30.72-4.93,40.66,2.59,18.9,10.8,31.86,12.94,35.12,16.05,24.37,40.26,32.45,48.67,35.12,7.73,2.45,27.71,7.72,51.14,1.85,9.45-2.37,22.31-5.77,32.04-17.25,6.04-7.13,8.4-14.44,9.86-19.1,4.75-15.21,2.58-28.18,1.23-35.73-1.48-8.3-5.23-27.75-21.56-44.98-14.57-15.37-31.13-20.51-38.81-22.8-10.53-3.13-42.58-10.66-70.24,6.78-5.07,3.2-14.11,9.04-20.33,20.33Z"/>
    <path class="st2" d="M650.1,735.91c-8.9,9.95-10.31,21.62-11.09,28.96-3.2,30.02,13.78,53.49,17.87,59.15,16.34,22.59,37.66,31.36,45.59,34.5,8.7,3.44,23.47,9.09,42.51,6.78,6.58-.8,19.11-2.51,31.42-11.71,3.41-2.55,11.57-8.78,16.63-19.72,7.8-16.84,3-33.4,0-43.74-6.62-22.83-20.83-36.56-26.49-41.9-3.32-3.13-16.88-15.48-38.81-22.8-10.19-3.4-30.56-9.89-53.6-3.08-7.01,2.07-16.34,4.96-24.03,13.55Z"/>
  </g>
</svg>